#!OML:ASF H:\Dans Jumps\Project 1\Capture day 1\Session 1\subject.ASF
:FULLY-SPECIFIED
:DEGREES
561
root 0.680296 17.6592 3.28225 6.76803 0.525104 -1.24051
lowerback -2.3146 -0.297506 -0.155926
upperback 2.35982 -0.451571 1.78754
thorax 3.74253 -0.255311 1.90431
lowerneck -13.1873 -0.374132 -2.41606
upperneck 18.9756 -0.154414 0.80635
head 8.05248 -0.166516 0.652847
rclavicle 3.37934e-015 1.63003e-014
rhumerus -22.4521 -18.5486 -81.1086
rradius 22.7194
rwrist 36.4771
rhand -20.6827 -26.1859
rfingers 7.12502
rthumb 5.68073 -56.0898
lclavicle 3.37934e-015 1.63003e-014
lhumerus -20.8757 2.079 88.7012
lradius 17.3835
lwrist 1.57707
lhand -26.0702 -5.08752
lfingers 7.12502
lthumb 0.477926 24.8917
rfemur -13.4254 -2.41427 20.3818
rtibia 23.9664
rfoot -15.43 -2.41334
rtoes 12.385
lfemur -12.91 5.28716 -18.0849
ltibia 20.7171
lfoot -11.8971 3.82957
ltoes -4.0603
562
root 0.680134 17.6589 3.28752 6.7643 0.512615 -1.25478
lowerback -2.34533 -0.307563 -0.144082
upperback 2.352 -0.465949 1.79661
thorax 3.75232 -0.262292 1.90611
lowerneck -13.175 -0.367806 -2.40906
upperneck 18.7944 -0.144916 0.793037
head 7.98972 -0.161753 0.647692
rclavicle 1.49089e-015 4.77083e-015
rhumerus -22.6035 -18.7934 -80.9655
rradius 22.6021
rwrist 36.6891
rhand -20.6519 -26.1735
rfingers 7.12502
rthumb 5.71048 -56.0765
lclavicle 1.49089e-015 4.77083e-015
lhumerus -20.9084 2.13038 88.7191
lradius 17.3327
lwrist 1.44145
lhand -26.078 -5.05651
lfingers 7.12502
lthumb 0.470375 24.9227
rfemur -13.3907 -2.40996 20.3978
rtibia 23.9413
rfoot -15.4399 -2.40813
rtoes 12.372
lfemur -12.8865 5.28539 -18.0659
ltibia 20.7218
lfoot -11.9139 3.84984
ltoes -4.07162
563
root 0.680036 17.6587 3.29272 6.7613 0.49372 -1.26526
lowerback -2.37809 -0.315693 -0.134801
upperback 2.34513 -0.477617 1.80346
thorax 3.76415 -0.267974 1.90721
lowerneck -13.1731 -0.360669 -2.39328
upperneck 18.6269 -0.133708 0.76877
head 7.93349 -0.156695 0.63769
rclavicle -8.34896e-015 5.1684e-015
rhumerus -22.7541 -19.031 -80.8264
rradius 22.4912
rwrist 36.8946
rhand -20.6246 -26.1719
rfingers 7.12502
rthumb 5.7368 -56.0742
lclavicle -8.34896e-015 5.1684e-015
lhumerus -20.9379 2.18499 88.7328
lradius 17.2865
lwrist 1.32061
lhand -26.0615 -5.00736
lfingers 7.12502
lthumb 0.486361 24.9718
rfemur -13.3588 -2.40651 20.4082
rtibia 23.9175
rfoot -15.4498 -2.39556
rtoes 12.3648
lfemur -12.8601 5.28473 -18.0523
ltibia 20.7211
lfoot -11.9265 3.87538
ltoes -4.08096
564
root 0.680006 17.6585 3.29789 6.75913 0.467155 -1.27159
lowerback -2.41404 -0.321873 -0.127961
upperback 2.34037 -0.48655 1.80744
thorax 3.77987 -0.272346 1.90685
lowerneck -13.1882 -0.353524 -2.37197
upperneck 18.4752 -0.12233 0.739838
head 7.88563 -0.151691 0.625317
rclavicle 1.59028e-015 -2.38542e-015
rhumerus -22.8955 -19.2783 -80.6914
rradius 22.3738
rwrist 37.1103
rhand -20.605 -26.182
rfingers 7.12502
rthumb 5.75572 -56.0838
lclavicle 1.59028e-015 -2.38542e-015
lhumerus -20.9677 2.24357 88.7403
lradius 17.2567
lwrist 1.22696
lhand -26.0064 -4.92809
lfingers 7.12502
lthumb 0.539557 25.051
rfemur -13.3297 -2.40637 20.4127
rtibia 23.8953
rfoot -15.4592 -2.37234
rtoes 12.3602
lfemur -12.8302 5.28741 -18.0447
ltibia 20.7147
lfoot -11.9369 3.90512
ltoes -4.09492
565
root 0.679982 17.6584 3.30293 6.75702 0.435316 -1.27244
lowerback -2.45012 -0.326473 -0.125661
upperback 2.33657 -0.493105 1.80851
thorax 3.79659 -0.275623 1.90617
lowerneck -13.2106 -0.347525 -2.34962
upperneck 18.3322 -0.112559 0.710594
head 7.84206 -0.147448 0.612549
rclavicle 5.31749e-015 -1.47101e-014
rhumerus -23.0354 -19.511 -80.5647
rradius 22.2649
rwrist 37.3094
rhand -20.588 -26.2092
rfingers 7.12502
rthumb 5.77217 -56.1106
lclavicle 5.31749e-015 -1.47101e-014
lhumerus -20.998 2.29418 88.7451
lradius 17.2388
lwrist 1.16504
lhand -25.9391 -4.85171
lfingers 7.12502
lthumb 0.604563 25.1272
rfemur -13.3023 -2.40795 20.4104
rtibia 23.8748
rfoot -15.4678 -2.34282
rtoes 12.3646
lfemur -12.7964 5.29134 -18.0439
ltibia 20.7018
lfoot -11.944 3.938
ltoes -4.09948
566
root 0.680013 17.6584 3.30774 6.76104 0.39881 -1.27125
lowerback -2.49137 -0.330538 -0.126039
upperback 2.33147 -0.49886 1.8095
thorax 3.81488 -0.278573 1.90694
lowerneck -13.2311 -0.340404 -2.32698
upperneck 18.1939 -0.101272 0.680628
head 7.79974 -0.142564 0.599691
rclavicle 7.10655e-015 -4.37326e-015
rhumerus -23.174 -19.702 -80.4509
rradius 22.1706
rwrist 37.4661
rhand -20.5641 -26.2651
rfingers 7.12502
rthumb 5.79524 -56.1659
lclavicle 7.10655e-015 -4.37326e-015
lhumerus -21.0341 2.34309 88.7499
lradius 17.226
lwrist 1.11204
lhand -25.8955 -4.84143
lfingers 7.12502
lthumb 0.646703 25.1373
rfemur -13.2834 -2.41263 20.4054
rtibia 23.8559
rfoot -15.4752 -2.30639
rtoes 12.3672
lfemur -12.7665 5.29956 -18.0469
ltibia 20.6831
lfoot -11.9467 3.97103
ltoes -4.10462
